<?xml version="1.0" standalone="no"?>
<!DOCTYPE svg PUBLIC "-//W3C//DTD SVG 20010904//EN"
 "http://www.w3.org/TR/2001/REC-SVG-20010904/DTD/svg10.dtd">
<svg version="1.0" xmlns="http://www.w3.org/2000/svg"
 width="260.000000pt" height="260.000000pt" viewBox="0 0 260.000000 260.000000"
 preserveAspectRatio="xMidYMid meet">
<metadata>
Created by potrace 1.11, written by Peter Selinger 2001-2013
</metadata>
<g transform="translate(0.000000,260.000000) scale(0.100000,-0.100000)"
fill="#000000" stroke="none">
<path d="M311 1798 c-59 -31 -81 -104 -80 -263 1 -116 -11 -142 -74 -175 -76
-40 -76 -87 -1 -116 68 -26 73 -40 78 -200 4 -159 17 -202 68 -234 62 -38 113
-20 106 37 -2 23 -10 30 -44 41 -56 18 -64 41 -64 175 0 127 -11 179 -45 213
l-24 24 24 26 c35 38 45 84 45 214 0 137 8 158 68 178 41 13 43 16 40 51 -3
33 -6 36 -38 39 -19 1 -46 -3 -59 -10z"/>
<path d="M2193 1799 c-17 -17 -17 -54 0 -67 6 -6 24 -13 39 -17 48 -12 53 -28
59 -184 6 -155 15 -190 55 -212 l24 -12 -28 -28 c-40 -40 -52 -90 -52 -223 0
-65 -5 -126 -10 -136 -6 -11 -28 -25 -50 -31 -45 -14 -60 -42 -40 -78 23 -44
113 -12 146 51 13 24 19 66 22 158 6 166 14 188 77 221 45 23 50 29 50 60 0
30 -5 36 -47 56 -67 32 -75 54 -80 213 -4 141 -13 174 -56 213 -26 24 -93 33
-109 16z"/>
<path d="M780 1738 c-22 -8 -26 -31 -7 -45 6 -5 34 -10 61 -11 27 -1 50 -3 52
-5 3 -2 -11 -53 -30 -113 -77 -242 -130 -409 -131 -414 -13 -58 -19 -70 -38
-76 -29 -9 -39 -25 -25 -41 11 -14 171 -19 202 -7 43 16 2 54 -58 54 -20 0
-36 2 -36 5 0 2 6 24 14 47 7 24 19 62 25 86 8 28 18 42 29 43 77 4 235 3 241
-1 7 -5 61 -159 61 -172 0 -5 -15 -8 -33 -8 -41 0 -73 -21 -64 -44 5 -13 23
-16 106 -16 84 0 100 3 105 17 6 16 -8 35 -34 45 -4 2 -55 147 -113 322 -58
175 -111 324 -117 330 -12 12 -178 16 -210 4z m229 -256 c28 -83 51 -154 51
-156 0 -7 -210 -5 -210 2 -2 22 96 328 101 319 4 -7 30 -81 58 -165z"/>
<path d="M1410 1736 c-5 -5 -10 -18 -10 -28 0 -17 17 -22 83 -21 16 0 17 -21
16 -304 l0 -303 -22 -1 c-72 -3 -82 -8 -72 -38 7 -22 7 -22 150 -23 141 0 169
7 149 39 -8 14 -26 18 -70 19 -32 1 -62 2 -66 3 -4 1 -6 51 -5 113 l2 112 75
4 c183 8 253 67 252 213 -1 119 -54 194 -152 215 -54 11 -318 12 -330 0z m351
-78 c24 -13 43 -34 53 -57 18 -45 13 -143 -9 -178 -26 -39 -89 -61 -170 -60
l-70 2 -1 161 -2 161 81 -4 c58 -3 91 -10 118 -25z"/>
</g>
</svg>
